{"title":"Mafia 2011 BRRip XViD juggs","uid":8223544,"size":745407923,"categoryP":"video","categoryS":"movies","magnet":"?xt=urn:btih:b2469a00146f26d65de372f51056d0c8ae35a2c7&amp;dn=Mafia+2011+BRRip+XViD+juggs&amp;tr=udp%3A%2F%2Ftracker.openbittorrent.com%3A80&amp;tr=udp%3A%2F%2Fopen.demonii.com%3A1337&amp;tr=udp%3A%2F%2Ftracker.coppersurfer.tk%3A6969&amp;tr=udp%3A%2F%2Fexodus.desync.com%3A6969","seeders":2,"leechers":0,"uploader":"juggs99","files":3,"time":1362531240,"description":"Source : NOSCREENS\n &lt;a href=&quot;\nhttp://www.imdb.com/title/tt1849810/&quot; rel=&quot;nofollow&quot; target=&quot;_NEW&quot;&gt;\nhttp://www.imdb.com/title/tt1849810/&lt;/a&gt;\n\n\nFormat                                   : AVI\nFormat/Info                              : Audio Video Interleave\nFile size                                : 701 MiB\nDuration                                 : 1h 21mn\nOverall bit rate                         : 1 196 Kbps\nWriting library                          : VirtualDub build 32842/release\n\nVideo\nID                                       : 0\nFormat                                   : MPEG-4 Visual\nFormat profile                           : Advanced Simple@L5\nFormat settings, BVOP                    : 4\nFormat settings, QPel                    : No\nFormat settings, GMC                     : No warppoints\nFormat settings, Matrix                  : Default (H.263)\nMuxing mode                              : Packed bitstream\nCodec ID                                 : XVID\nCodec ID/Hint                            : XviD\nDuration                                 : 1h 21mn\nBit rate                                 : 1 058 Kbps\nWidth                                    : 640 pixels\nHeight                                   : 352 pixels\nDisplay aspect ratio                     : 16:9\nFrame rate                               : 23.976 fps\nColor space                              : YUV\nChroma subsampling                       : 4:2:0\nBit depth                                : 8 bits\nScan type                                : Progressive\nCompression mode                         : Lossy\nBits/(Pixel*Frame)                       : 0.196\nStream size                              : 620 MiB (89%)\nWriting library                          : XviD 64\n\nAudio\nID                                       : 1\nFormat                                   : MPEG Audio\nFormat version                           : Version 1\nFormat profile                           : Layer 3\nCodec ID                                 : 55\nCodec ID/Hint                            : MP3\nDuration                                 : 1h 21mn\nBit rate mode                            : Constant\nBit rate                                 : 128 Kbps\nChannel(s)                               : 2 channels\nSampling rate                            : 44.1 KHz\nCompression mode                         : Lossy\nStream size                              : 75.0 MiB (11%)\nAlignment                                : Split accross interleaves\nInterleave, duration                     : 42 ms (1.00 video frame)\nInterleave, preload duration             : 500 ms\nWriting library                          : LAME3.99r\nEncoding settings                        : -m s -V 4 -q 3 -lowpass 17 -b 128\n\n\nPlot\nIts the 70s and criminal boss Renzo and his crew wreak havoc across the streets, leaving bodies\nwherever they go. Detective Womack will stop at nothing to bring these thugs to justice, even if\nit means breaking the law. Starring Ving Rhames, Pam Grier, Robert Patrick, and Persia White,\nMAFIA delivers justice one bullet at a time.\n\n &lt;a href=&quot;\nhttp://www.shotpix.com/images/59215766656233081336.png&quot; rel=&quot;nofollow&quot; target=&quot;_NEW&quot;&gt;\nhttp://www.shotpix.com/images/59215766656233081336.png&lt;/a&gt; &lt;a href=&quot;\nhttp://www.shotpix.com/images/48056528237554427202.png&quot; rel=&quot;nofollow&quot; target=&quot;_NEW&quot;&gt;\nhttp://www.shotpix.com/images/48056528237554427202.png&lt;/a&gt; &lt;a href=&quot;\nhttp://www.shotpix.com/images/39580920334407004787.png&quot; rel=&quot;nofollow&quot; target=&quot;_NEW&quot;&gt;\nhttp://www.shotpix.com/images/39580920334407004787.png&lt;/a&gt; &lt;a href=&quot;\nhttp://www.shotpix.com/images/00984583158188079344.png&quot; rel=&quot;nofollow&quot; target=&quot;_NEW&quot;&gt;\nhttp://www.shotpix.com/images/00984583158188079344.png&lt;/a&gt;","torrent":{"xt":"urn:btih:b2469a00146f26d65de372f51056d0c8ae35a2c7","amp;dn":"Mafia+2011+BRRip+XViD+juggs","amp;tr":["udp%3A%2F%2Ftracker.openbittorrent.com%3A80","udp%3A%2F%2Fopen.demonii.com%3A1337","udp%3A%2F%2Ftracker.coppersurfer.tk%3A6969","udp%3A%2F%2Fexodus.desync.com%3A6969"],"infoHash":"b2469a00146f26d65de372f51056d0c8ae35a2c7","infoHashBuffer":{"type":"Buffer","data":[178,70,154,0,20,111,38,214,93,227,114,245,16,86,208,200,174,53,162,199]},"announce":[],"urlList":[]}}